<svg id="Layer_1" data-name="Layer 1" xmlns="http://www.w3.org/2000/svg" viewBox="0 0 512 512">
  <title>logo</title>
  <g>
    <path d="M18.2045,391.9333A108.19,108.19,0,0,0,126.2713,500H427.7206c12.5641,0,10.7509-10.1868,10.7509-22.7509s1.8132-22.7509-10.7509-22.7509H126.2713a62.565,62.565,0,1,1,0-125.13H387.9065a108.0668,108.0668,0,1,0,0-216.1335H62.71c-12.5641,0-10.7509,10.1868-10.7509,22.7509S50.1458,158.7366,62.71,158.7366H387.9065a62.565,62.565,0,1,1,0,125.13H126.2713A108.19,108.19,0,0,0,18.2045,391.9333Z" fill="#666b71"/>
    <g>
      <g>
        <path d="M250.0876,262.2535a43.55,43.55,0,1,0,13.7467,2.2185A43.5525,43.5525,0,0,0,250.0876,262.2535Z" fill="#7fe6e6"/>
        <path d="M250.0876,258.292a47.61,47.61,0,1,1-47.5387,47.5386A47.7684,47.7684,0,0,1,250.0876,258.292Zm34.681,28.3769a39.6271,39.6271,0,1,0,4.9345,19.1617A39.5661,39.5661,0,0,0,284.7686,286.6689Z" fill="#353940"/>
      </g>
      <g>
        <circle cx="249.2785" cy="305.8378" r="23.4986" fill="#ccf5f5"/>
        <path d="M249.279,278.3783a27.46,27.46,0,1,1-27.46,27.46A27.49,27.49,0,0,1,249.279,278.3783Zm0,7.9231a19.537,19.537,0,1,0,19.537,19.537A19.5571,19.5571,0,0,0,249.279,286.3014Z" fill="#353940"/>
      </g>
    </g>
    <g>
      <g>
        <path d="M97.7405,81.9285l-39.5,72.6162L18.74,81.9285a44.1627,44.1627,0,0,1,8.2725-50.9779h0a44.1627,44.1627,0,0,1,62.4555,0h0A44.1626,44.1626,0,0,1,97.7405,81.9285Z" fill="#7fe6e6"/>
        <path d="M54.7114,156.4623,15.148,83.7233a48.1774,48.1774,0,1,1,86.1855,0c-.02.0432-.0431.0824-.0627.1216L61.77,156.4623a4.0177,4.0177,0,0,1-7.0587,0ZM86.6281,33.7915A40.1473,40.1473,0,0,0,22.2693,80.01L58.2408,146.141l35.94-66.0685A40.094,40.094,0,0,0,86.6281,33.7915Z" fill="#353940"/>
      </g>
      <g>
        <circle cx="58.2401" cy="63.0069" r="23.8189" fill="#ccf5f5"/>
        <path d="M30.4063,63.0063A27.8345,27.8345,0,1,1,58.2408,90.8408,27.8652,27.8652,0,0,1,30.4063,63.0063Zm8.0311,0A19.8034,19.8034,0,1,0,58.2408,43.203,19.8236,19.8236,0,0,0,38.4374,63.0063Z" fill="#353940"/>
      </g>
    </g>
    <g>
      <g>
        <path d="M472.5286,423.644l-39.44,72.5055-39.44-72.5055a44.0953,44.0953,0,0,1,8.26-50.9h0a44.0954,44.0954,0,0,1,62.36,0h0A44.0953,44.0953,0,0,1,472.5286,423.644Z" fill="#7fe6e6"/>
        <path d="M429.5651,498.0661l-39.5032-72.628a48.1052,48.1052,0,1,1,86.0543,0c-.02.0411-.0431.0822-.0627.1233l-39.44,72.5047a4.0132,4.0132,0,0,1-7.0479,0Zm31.8681-122.4877a40.0867,40.0867,0,0,0-64.2608,46.15l35.9167,66.03,35.8853-65.9679A40.0361,40.0361,0,0,0,461.4332,375.5784Z" fill="#353940"/>
      </g>
      <g>
        <circle cx="433.0884" cy="404.7512" r="23.7826" fill="#ccf5f5"/>
        <path d="M405.297,404.7507a27.7921,27.7921,0,1,1,27.7921,27.792A27.8228,27.8228,0,0,1,405.297,404.7507Zm8.0189,0a19.7732,19.7732,0,1,0,19.7732-19.7732A19.7947,19.7947,0,0,0,413.3159,404.7507Z" fill="#353940"/>
      </g>
    </g>
  </g>
</svg>
